<svg xmlns="http://www.w3.org/2000/svg" viewBox="0 0 1242 532" width="1242" height="532">
    <path fill="none" stroke="#ffba2d" stroke-width="2"
          d="M1198.8 232.3c4.7 3 6.1 9.1 3.2 13.8l-.2.3c-2.8 4.5-1.3 10.4 3.2 13.2 4.6 2.8 10.5 1.5 13.4-2.9l.2-.3c3.1-4.7 9.4-6 14.2-3.1 4.8 3 6.3 9.3 3.3 14.1-8.9 14.1-27.8 18.3-42 9.5-14.3-8.8-18.7-27.4-9.8-41.4 3-4.7 9.3-6.2 14.1-3.3l.2.1h.2z" />
    <linearGradient id="a2" x1="1046.5737" x2="1180.3937" y1="142.2743" y2="50.0583"
                    gradientTransform="matrix(1 0 0 -1 0 519.0001)" gradientUnits="userSpaceOnUse">
        <stop offset="0" stop-color="#ffda65" />
        <stop offset="1" stop-color="#ff9741" />
    </linearGradient>
    <circle cx="1096.9" cy="411.4" r="120.5" fill="url(#a2)" />
    <linearGradient id="b2" x1="-83.934" x2="122.2983" y1="-272.8492" y2="-30.4322"
                    gradientTransform="matrix(.766 -.6428 -.6428 -.766 175.4476 172.2943)"
                    gradientUnits="userSpaceOnUse">
        <stop offset="0" stop-color="#c857f1" />
        <stop offset="1" stop-color="#2ebffc" />
    </linearGradient>
    <path fill="url(#b2)"
          d="M45.1 300.6l323-271C421.4-15.3 501-8.3 545.8 45.1l.2.2c44.8 53.4 37.8 132.9-15.5 177.7l-323 271C154 538.7 74.4 531.8 29.7 478.4l-.2-.2c-44.8-53.3-37.8-132.9 15.6-177.6z" />
    <path fill="none" stroke="#ff008b" stroke-width="2"
          d="M130.5 193.8L522.4 58.9c52.9-18.2 110.5 9.9 128.7 62.8h0c18.2 52.9-9.9 110.5-62.8 128.7L196.5 385.3c-52.9 18.2-110.5-9.9-128.7-62.8h0c-18.3-52.9 9.8-110.5 62.7-128.7z" />
    <circle cx="811.9" cy="81.2" r="12" fill="#ff008b" />
    <linearGradient id="c2" x1="733.0189" x2="647.999" y1="-193.4654" y2="-16.5744"
                    gradientTransform="scale(1 -1) rotate(32.997 1111.38555617 211.5247949)"
                    gradientUnits="userSpaceOnUse">
        <stop offset="0" stop-color="#f80089" />
        <stop offset="1" stop-color="#b833e1" />
    </linearGradient>
    <path fill="url(#c2)"
          d="M678 256.3L981.8 59.1c58.4-37.9 136.5-21.3 174.5 37.1l.1.2c37.9 58.4 21.3 136.5-37.1 174.5L815.5 468.1C757.1 506 679 489.4 641.1 431l-.1-.2c-38-58.4-21.4-136.5 37-174.5z" />
</svg>
